{
  "source": "C:\\Users\\Peter\\Desktop\\stuff\\MIUN\\quantitative_research\\video_compression\\videos\\BVI-HD\\Surfers_1920x1080_30fps.mp4",
  "output": "C:\\Users\\Peter\\Desktop\\stuff\\MIUN\\quantitative_research\\video_compression\\compressed_videos\\BVI-HD\\vp9\\12\\Surfers_1920x1080_30fps_vp9.webm",
  "codec": "vp9",
  "ok": "Input #0, mov,mp4,m4a,3gp,3g2,mj2, from 'C:\\Users\\Peter\\Desktop\\stuff\\MIUN\\quantitative_research\\video_compression\\videos\\BVI-HD\\Surfers_1920x1080_30fps.mp4':\n  Metadata:\n    major_brand     : isom\n    minor_version   : 512\n    compatible_brands: isomiso2avc1mp41\n    encoder         : Lavf54.28.101\n  Duration: 00:00:05.00, start: 0.000000, bitrate: 232762 kb/s\n  Stream #0:0[0x1](und): Video: h264 (High 4:4:4 Predictive) (avc1 / 0x31637661), yuv420p(progressive), 1920x1080, 232759 kb/s, 30 fps, 30 tbr, 30 tbn (default)\n    Metadata:\n      handler_name    : VideoHandler\n      vendor_id       : [0][0][0][0]\n[out#0/webm @ 0000012871200c40] Codec AVOption b:a (set bitrate (in bits/s)) has not been used for any stream. The most likely reason is either wrong type (e.g. a video option with no video streams) or that it is a private option of some decoder which was not actually used for any stream.\nStream mapping:\n  Stream #0:0 -> #0:0 (h264 (native) -> vp9 (libvpx-vp9))\nPress [q] to stop, [?] for help\n[libvpx-vp9 @ 0000012871820440] v1.15.2-100-g40561f514\nOutput #0, webm, to 'C:\\Users\\Peter\\Desktop\\stuff\\MIUN\\quantitative_research\\video_compression\\compressed_videos\\BVI-HD\\vp9\\12\\Surfers_1920x1080_30fps_vp9.webm':\n  Metadata:\n    major_brand     : isom\n    minor_version   : 512\n    compatible_brands: isomiso2avc1mp41\n    encoder         : Lavf62.3.100\n  Stream #0:0(und): Video: vp9, yuv420p(tv, progressive), 1920x1080, q=2-31, 12000 kb/s, 30 fps, 1k tbn (default)\n    Metadata:\n      encoder         : Lavc62.11.100 libvpx-vp9\n      handler_name    : VideoHandler\n      vendor_id       : [0][0][0][0]\n    Side data:\n      cpb: bitrate max/min/avg: 0/0/0 buffer size: 12000000 vbv_delay: N/A\nframe=    0 fps=0.0 q=0.0 size=       0KiB time=N/A bitrate=N/A speed=N/A elapsed=0:00:00.52    \nframe=    4 fps=3.6 q=42.0 size=       1KiB time=00:00:00.13 bitrate=  38.0kbits/s speed=0.119x elapsed=0:00:01.11    \nframe=    9 fps=5.5 q=33.0 size=       1KiB time=00:00:00.26 bitrate=  19.0kbits/s speed=0.164x elapsed=0:00:01.62    \nframe=   12 fps=5.5 q=32.0 size=       1KiB time=00:00:00.40 bitrate=  12.7kbits/s speed=0.185x elapsed=0:00:02.16    \nframe=   16 fps=5.9 q=34.0 size=       1KiB time=00:00:00.53 bitrate=   9.5kbits/s speed=0.197x elapsed=0:00:02.71    \nframe=   20 fps=6.1 q=34.0 size=       1KiB time=00:00:00.66 bitrate=   7.6kbits/s speed=0.205x elapsed=0:00:03.25    \nframe=   22 fps=5.8 q=35.0 size=       1KiB time=00:00:00.73 bitrate=   6.9kbits/s speed=0.194x elapsed=0:00:03.78    \nframe=   26 fps=6.1 q=36.0 size=       1KiB time=00:00:00.86 bitrate=   5.9kbits/s speed=0.202x elapsed=0:00:04.29    \nframe=   30 fps=6.2 q=36.0 size=       1KiB time=00:00:01.00 bitrate=   5.1kbits/s speed=0.206x elapsed=0:00:04.84    \nframe=   34 fps=6.3 q=34.0 size=       1KiB time=00:00:01.13 bitrate=   4.5kbits/s speed=0.211x elapsed=0:00:05.38    \nframe=   38 fps=6.4 q=35.0 size=       1KiB time=00:00:01.26 bitrate=   4.0kbits/s speed=0.214x elapsed=0:00:05.92    \nframe=   41 fps=6.3 q=23.0 size=       1KiB time=00:00:01.36 bitrate=   3.7kbits/s speed=0.211x elapsed=0:00:06.46    \nframe=   45 fps=6.4 q=35.0 size=       1KiB time=00:00:01.50 bitrate=   3.4kbits/s speed=0.214x elapsed=0:00:06.99    \nframe=   48 fps=6.4 q=35.0 size=       1KiB time=00:00:01.60 bitrate=   3.2kbits/s speed=0.213x elapsed=0:00:07.52    \nframe=   52 fps=6.5 q=34.0 size=       1KiB time=00:00:01.73 bitrate=   2.9kbits/s speed=0.216x elapsed=0:00:08.04    \nframe=   55 fps=6.4 q=30.0 size=       1KiB time=00:00:01.83 bitrate=   2.8kbits/s speed=0.213x elapsed=0:00:08.59    \nframe=   59 fps=6.5 q=32.0 size=       1KiB time=00:00:01.96 bitrate=   2.6kbits/s speed=0.216x elapsed=0:00:09.11    \nframe=   62 fps=6.4 q=31.0 size=       1KiB time=00:00:02.06 bitrate=   2.5kbits/s speed=0.214x elapsed=0:00:09.66    \nframe=   67 fps=6.6 q=32.0 size=       1KiB time=00:00:02.23 bitrate=   2.3kbits/s speed=0.219x elapsed=0:00:10.19    \nframe=   70 fps=6.5 q=32.0 size=       1KiB time=00:00:02.33 bitrate=   2.2kbits/s speed=0.217x elapsed=0:00:10.75    \nframe=   74 fps=6.6 q=33.0 size=       1KiB time=00:00:02.46 bitrate=   2.1kbits/s speed=0.219x elapsed=0:00:11.28    \nframe=   77 fps=6.5 q=32.0 size=       1KiB time=00:00:02.56 bitrate=   2.0kbits/s speed=0.217x elapsed=0:00:11.82    \nframe=   80 fps=6.5 q=28.0 size=       1KiB time=00:00:02.66 bitrate=   1.9kbits/s speed=0.216x elapsed=0:00:12.33    \nframe=   84 fps=6.5 q=31.0 size=       1KiB time=00:00:02.80 bitrate=   1.8kbits/s speed=0.218x elapsed=0:00:12.86    \nframe=   87 fps=6.5 q=19.0 size=       1KiB time=00:00:02.90 bitrate=   1.7kbits/s speed=0.217x elapsed=0:00:13.39    \nframe=   90 fps=6.5 q=35.0 size=       1KiB time=00:00:03.00 bitrate=   1.7kbits/s speed=0.215x elapsed=0:00:13.92    \nframe=   93 fps=6.4 q=22.0 size=       1KiB time=00:00:03.10 bitrate=   1.6kbits/s speed=0.214x elapsed=0:00:14.45    \nframe=   97 fps=6.5 q=36.0 size=       1KiB time=00:00:03.23 bitrate=   1.6kbits/s speed=0.216x elapsed=0:00:14.97    \nframe=  100 fps=6.5 q=32.0 size=       1KiB time=00:00:03.33 bitrate=   1.5kbits/s speed=0.215x elapsed=0:00:15.49    \nframe=  104 fps=6.5 q=32.0 size=       1KiB time=00:00:03.46 bitrate=   1.5kbits/s speed=0.216x elapsed=0:00:16.02    \nframe=  107 fps=6.5 q=33.0 size=       1KiB time=00:00:03.56 bitrate=   1.4kbits/s speed=0.215x elapsed=0:00:16.57    \nframe=  110 fps=6.4 q=37.0 size=       1KiB time=00:00:03.66 bitrate=   1.4kbits/s speed=0.215x elapsed=0:00:17.08    \nframe=  114 fps=6.5 q=37.0 size=       1KiB time=00:00:03.80 bitrate=   1.3kbits/s speed=0.216x elapsed=0:00:17.61    \nframe=  118 fps=6.5 q=36.0 size=       1KiB time=00:00:03.93 bitrate=   1.3kbits/s speed=0.217x elapsed=0:00:18.14    \nframe=  121 fps=6.5 q=36.0 size=       1KiB time=00:00:04.03 bitrate=   1.3kbits/s speed=0.216x elapsed=0:00:18.67    \nframe=  124 fps=6.5 q=21.0 size=       1KiB time=00:00:04.13 bitrate=   1.2kbits/s speed=0.215x elapsed=0:00:19.20    \nframe=  126 fps=6.4 q=34.0 size=       1KiB time=00:00:04.20 bitrate=   1.2kbits/s speed=0.213x elapsed=0:00:19.71    \nframe=  126 fps=6.2 q=34.0 size=       1KiB time=00:00:04.20 bitrate=   1.2kbits/s speed=0.207x elapsed=0:00:20.25    \nframe=  126 fps=6.1 q=34.0 size=       1KiB time=00:00:04.20 bitrate=   1.2kbits/s speed=0.202x elapsed=0:00:20.80    \nframe=  126 fps=5.9 q=34.0 size=       1KiB time=00:00:04.20 bitrate=   1.2kbits/s speed=0.197x elapsed=0:00:21.33    \nframe=  126 fps=5.8 q=34.0 size=       1KiB time=00:00:04.20 bitrate=   1.2kbits/s speed=0.192x elapsed=0:00:21.85    \nframe=  126 fps=5.6 q=34.0 size=       1KiB time=00:00:04.20 bitrate=   1.2kbits/s speed=0.188x elapsed=0:00:22.37    \nframe=  126 fps=5.5 q=34.0 size=       1KiB time=00:00:04.20 bitrate=   1.2kbits/s speed=0.183x elapsed=0:00:22.91    \n[out#0/webm @ 0000012871200c40] video:5680KiB audio:0KiB subtitle:0KiB other streams:0KiB global headers:0KiB muxing overhead: 0.032597%\nframe=  150 fps=6.5 q=35.0 Lsize=    5682KiB time=00:00:05.00 bitrate=9309.3kbits/s speed=0.218x elapsed=0:00:22.92    \n",
  "seconds": 23.255122900009155,
  "probe_out": {}
}